<?xml version="1.0" encoding="UTF-8"?><svg id="a" xmlns="http://www.w3.org/2000/svg" viewBox="0 0 512 512"><defs><style>.b{fill:#fff;}</style></defs><circle class="b" cx="256" cy="254" r="100"/><g><path class="b" d="M256,404c-5.2,0-10.44-.27-15.58-.8-5.49-.57-9.49-5.48-8.92-10.97,.57-5.49,5.49-9.49,10.97-8.92,4.46,.46,9.01,.69,13.53,.69,13.75,0,27.29-2.14,40.24-6.34,5.25-1.71,10.89,1.17,12.6,6.42,1.71,5.25-1.17,10.89-6.42,12.6-14.94,4.86-30.56,7.32-46.42,7.32Z"/><path class="b" d="M212.81,397.21c-1.02,0-2.06-.16-3.08-.49-20.08-6.5-38.25-16.99-54.02-31.18-4.11-3.69-4.44-10.02-.75-14.12,3.69-4.11,10.02-4.44,14.12-.75,13.67,12.29,29.42,21.39,46.81,27.02,5.25,1.7,8.13,7.34,6.43,12.6-1.37,4.23-5.29,6.92-9.51,6.92Z"/><path class="b" d="M326.06,385.24c-3.45,0-6.81-1.79-8.66-4.99-2.77-4.78-1.14-10.9,3.64-13.67,15.63-9.05,29.52-21.57,40.16-36.2,3.25-4.47,9.5-5.45,13.97-2.2,4.47,3.25,5.45,9.5,2.2,13.97-12.27,16.87-28.29,31.3-46.31,41.74-1.58,.91-3.3,1.35-5,1.35Z"/><path class="b" d="M142.8,346.39c-3.09,0-6.13-1.42-8.09-4.11-12.49-17.13-21.05-36.29-25.44-56.95-1.15-5.4,2.3-10.71,7.7-11.86,5.4-1.15,10.71,2.3,11.86,7.7,3.8,17.89,11.22,34.49,22.04,49.33,3.25,4.46,2.27,10.72-2.19,13.97-1.78,1.29-3.84,1.92-5.88,1.92Z"/><path class="b" d="M383.93,320.94c-1.36,0-2.74-.28-4.07-.87-5.04-2.25-7.31-8.16-5.06-13.21,7.43-16.67,11.2-34.46,11.2-52.87v-.3c0-5.52,4.48-10,10-10s10,4.48,10,10v.3c0,21.24-4.35,41.76-12.93,61.01-1.66,3.72-5.31,5.93-9.14,5.93Z"/><path class="b" d="M116,264.15c-5.52,0-10-4.48-10-10v-.15c0-21.18,4.33-41.66,12.86-60.86,2.24-5.05,8.15-7.32,13.2-5.08,5.05,2.24,7.32,8.15,5.08,13.2-7.39,16.63-11.14,34.38-11.14,52.74v.15c0,5.52-4.48,10-10,10Z"/><path class="b" d="M392.9,234.61c-4.62,0-8.77-3.22-9.77-7.91-3.82-17.89-11.25-34.47-22.09-49.3-3.26-4.46-2.29-10.72,2.17-13.97,4.46-3.26,10.72-2.28,13.97,2.17,12.51,17.12,21.09,36.27,25.5,56.92,1.15,5.4-2.29,10.71-7.69,11.87-.7,.15-1.41,.22-2.1,.22Z"/><path class="b" d="M142.62,181.85c-2.04,0-4.09-.62-5.87-1.91-4.47-3.24-5.46-9.5-2.22-13.97,12.25-16.88,28.25-31.33,46.27-41.79,4.78-2.77,10.9-1.15,13.67,3.63,2.77,4.78,1.15,10.9-3.63,13.67-15.62,9.07-29.5,21.6-40.12,36.24-1.96,2.7-5.01,4.13-8.1,4.13Z"/><path class="b" d="M349.48,159.79c-2.38,0-4.77-.84-6.68-2.56-13.68-12.28-29.44-21.35-46.83-26.97-5.25-1.7-8.14-7.33-6.44-12.59,1.7-5.25,7.33-8.14,12.59-6.44,20.08,6.48,38.27,16.95,54.05,31.12,4.11,3.69,4.45,10.01,.76,14.12-1.97,2.2-4.7,3.32-7.44,3.32Z"/><path class="b" d="M212.53,130.88c-4.21,0-8.13-2.68-9.5-6.9-1.71-5.25,1.15-10.9,6.4-12.61,14.99-4.89,30.66-7.37,46.57-7.37,5.14,0,10.33,.26,15.42,.78,5.49,.56,9.49,5.47,8.93,10.96s-5.46,9.49-10.96,8.93c-4.42-.45-8.92-.68-13.39-.68-13.8,0-27.38,2.15-40.37,6.39-1.03,.34-2.08,.5-3.1,.5Z"/></g><g><path class="b" d="M243.16,456.07c-.28,0-.56,0-.84-.03l-1.09-.08c-6.89-.5-12.06-6.48-11.56-13.37,.5-6.89,6.5-12.04,13.37-11.56l.94,.07c6.89,.46,12.1,6.41,11.65,13.3-.44,6.61-5.93,11.67-12.46,11.67Z"/><path class="b" d="M293.75,452.75c-5.84,0-11.06-4.11-12.25-10.06-1.35-6.77,3.04-13.35,9.81-14.7l.92-.19c6.76-1.39,13.37,2.96,14.76,9.72,1.39,6.76-2.96,13.37-9.72,14.76l-1.07,.22c-.82,.16-1.65,.24-2.46,.24Z"/><path class="b" d="M192.49,445.63c-1.39,0-2.8-.23-4.19-.73l-1.04-.37c-6.49-2.35-9.84-9.52-7.49-16.01,2.35-6.49,9.53-9.84,16.01-7.49l.89,.32c6.5,2.31,9.9,9.46,7.59,15.97-1.82,5.12-6.64,8.31-11.78,8.31Z"/><path class="b" d="M342.6,435.67c-4.53,0-8.91-2.47-11.12-6.78-3.16-6.14-.74-13.67,5.39-16.83l.84-.44c6.13-3.19,13.67-.81,16.86,5.31,3.19,6.12,.81,13.67-5.31,16.86l-.96,.5c-1.83,.94-3.78,1.39-5.71,1.39Z"/><path class="b" d="M146.53,421.82c-2.5,0-5.02-.75-7.21-2.3l-.89-.63c-5.61-4.02-6.9-11.83-2.88-17.44,4.02-5.61,11.83-6.9,17.44-2.88l.77,.55c5.63,3.99,6.97,11.79,2.98,17.42-2.44,3.44-6.29,5.28-10.21,5.28Z"/><path class="b" d="M384.98,406.02c-3.36,0-6.71-1.35-9.18-4.01-4.69-5.07-4.38-12.97,.68-17.66l.71-.66c5.05-4.71,12.96-4.43,17.67,.61,4.71,5.05,4.44,12.96-.61,17.67l-.78,.73c-2.4,2.23-5.45,3.33-8.49,3.33Z"/><path class="b" d="M108.72,386.53c-3.63,0-7.23-1.57-9.7-4.61l-.67-.83c-4.34-5.37-3.5-13.24,1.87-17.58,5.37-4.34,13.24-3.5,17.58,1.87l.61,.75c4.36,5.35,3.55,13.23-1.8,17.58-2.32,1.89-5.11,2.81-7.88,2.81Z"/><path class="b" d="M417.84,366.07c-2.23,0-4.49-.6-6.54-1.85-5.88-3.62-7.72-11.31-4.1-17.2l.51-.83c3.59-5.9,11.29-7.76,17.18-4.17,5.9,3.59,7.76,11.28,4.17,17.18l-.56,.91c-2.36,3.84-6.46,5.96-10.66,5.96Z"/><path class="b" d="M81.77,342.39c-4.82,0-9.42-2.81-11.47-7.51l-.41-.94c-2.75-6.33,.16-13.7,6.49-16.44,6.33-2.75,13.69,.16,16.44,6.49l.4,.92c2.76,6.33-.14,13.69-6.47,16.45-1.62,.71-3.32,1.04-4.98,1.04Z"/><path class="b" d="M438.74,318.73c-1.14,0-2.3-.16-3.46-.49-6.63-1.91-10.47-8.83-8.56-15.47l.26-.9c1.87-6.65,8.77-10.52,15.41-8.66,6.65,1.87,10.52,8.77,8.66,15.41l-.3,1.06c-1.58,5.48-6.58,9.05-12.01,9.05Z"/><path class="b" d="M67.76,292.59c-6.15,0-11.51-4.54-12.37-10.81l-.14-1.05c-.91-6.84,3.9-13.13,10.74-14.04,6.84-.9,13.13,3.9,14.04,10.74l.13,.97c.93,6.84-3.85,13.14-10.69,14.08-.57,.08-1.14,.12-1.71,.12Z"/><path class="b" d="M446,267.52h-.07c-6.9-.04-12.47-5.67-12.43-12.57v-1.37c0-6.9,5.6-12.5,12.5-12.5s12.5,5.6,12.5,12.5v1.51c-.04,6.88-5.63,12.43-12.5,12.43Z"/><path class="b" d="M67.73,240.86c-.55,0-1.11-.04-1.67-.11-6.84-.91-11.65-7.2-10.74-14.04,.05-.37,.1-.75,.15-1.12,.97-6.83,7.3-11.59,14.14-10.61,6.83,.97,11.58,7.31,10.61,14.14l-.12,.9c-.84,6.28-6.21,10.85-12.37,10.85Z"/><path class="b" d="M439.16,215.82c-5.48,0-10.5-3.63-12.04-9.16l-.26-.94c-1.87-6.65,2.01-13.55,8.65-15.42,6.65-1.87,13.55,2.01,15.42,8.65l.28,1.02c1.85,6.65-2.05,13.54-8.7,15.39-1.12,.31-2.24,.46-3.35,.46Z"/><path class="b" d="M81.58,191.01c-1.66,0-3.35-.33-4.97-1.04-6.33-2.75-9.24-10.11-6.48-16.44l.44-1.02c2.79-6.31,10.18-9.16,16.49-6.37,6.31,2.79,9.16,10.18,6.37,16.49l-.37,.86c-2.05,4.71-6.64,7.52-11.47,7.52Z"/><path class="b" d="M418.71,168.31c-4.22,0-8.34-2.14-10.7-6.02l-.5-.83c-3.61-5.89-1.76-13.58,4.13-17.19,5.89-3.61,13.58-1.76,17.19,4.13l.55,.91c3.58,5.9,1.7,13.59-4.2,17.17-2.03,1.23-4.26,1.82-6.47,1.82Z"/><path class="b" d="M108.44,146.79c-2.77,0-5.55-.91-7.87-2.79-5.36-4.35-6.18-12.22-1.83-17.58l.68-.84c4.38-5.34,12.25-6.12,17.59-1.75,5.34,4.38,6.12,12.25,1.75,17.59l-.6,.74c-2.47,3.04-6.08,4.63-9.72,4.63Z"/><path class="b" d="M386.16,128.09c-3.07,0-6.15-1.12-8.56-3.4l-.7-.65c-5.05-4.7-5.33-12.61-.63-17.67s12.61-5.34,17.67-.63l.79,.74c5.03,4.73,5.27,12.64,.54,17.67-2.46,2.61-5.78,3.94-9.11,3.94Z"/><path class="b" d="M146.22,111.42c-3.92,0-7.77-1.84-10.21-5.27-3.99-5.63-2.66-13.43,2.97-17.43l.88-.62c5.65-3.96,13.45-2.59,17.41,3.06,3.96,5.65,2.59,13.45-3.06,17.41l-.78,.55c-2.19,1.55-4.72,2.3-7.22,2.3Z"/><path class="b" d="M344.01,98.08c-1.95,0-3.93-.46-5.78-1.42l-.86-.45c-6.13-3.17-8.53-10.72-5.35-16.85,3.17-6.13,10.72-8.53,16.85-5.35l.95,.49c6.12,3.2,8.49,10.75,5.29,16.87-2.23,4.27-6.58,6.71-11.09,6.71Z"/><path class="b" d="M192.07,87.53c-5.13,0-9.94-3.18-11.77-8.29-2.33-6.5,1.06-13.65,7.56-15.98l1.03-.37c6.51-2.29,13.65,1.15,15.93,7.66,2.28,6.51-1.15,13.65-7.66,15.93l-.88,.31c-1.39,.5-2.81,.73-4.21,.73Z"/><path class="b" d="M295.34,80.58c-.85,0-1.72-.09-2.58-.27l-.93-.19c-6.76-1.38-11.13-7.99-9.74-14.75,1.38-6.76,7.99-11.13,14.75-9.74l1.07,.22c6.76,1.42,11.08,8.05,9.66,14.8-1.24,5.89-6.43,9.93-12.22,9.93Z"/><path class="b" d="M242.7,76.96c-6.51,0-12-5.04-12.46-11.64-.48-6.89,4.72-12.86,11.6-13.33l1.07-.07c6.86-.46,12.84,4.77,13.28,11.66,.45,6.89-4.78,12.84-11.67,13.28l-.96,.06c-.29,.02-.59,.03-.88,.03Z"/></g></svg>